<svg width="218" height="30" viewBox="0 0 218 30" fill="none" xmlns="http://www.w3.org/2000/svg">
<g filter="url(#filter0_b_1405_39)">
<rect y="4.1842" width="74" height="22" rx="11" fill="#F3F4F6" fill-opacity="0.5"/>
<path d="M10.772 19.1842V12.0202H8.324V10.7842H14.768V12.0202H12.308V19.1842H10.772ZM18.3418 19.1842L15.2698 10.7842H16.9138L19.2898 17.6122L21.6778 10.7842H23.2978L20.2258 19.1842H18.3418ZM30.0238 19.3282C29.4078 19.3282 28.8638 19.2242 28.3918 19.0162C27.9198 18.8002 27.5478 18.4962 27.2758 18.1042C27.0038 17.7042 26.8638 17.2202 26.8558 16.6522H28.4758C28.4918 17.0442 28.6318 17.3762 28.8958 17.6482C29.1678 17.9122 29.5398 18.0442 30.0118 18.0442C30.4198 18.0442 30.7438 17.9482 30.9838 17.7562C31.2238 17.5562 31.3438 17.2922 31.3438 16.9642C31.3438 16.6202 31.2358 16.3522 31.0198 16.1602C30.8118 15.9682 30.5318 15.8122 30.1798 15.6922C29.8278 15.5722 29.4518 15.4442 29.0518 15.3082C28.4038 15.0842 27.9078 14.7962 27.5638 14.4442C27.2278 14.0922 27.0598 13.6242 27.0598 13.0402C27.0518 12.5442 27.1678 12.1202 27.4078 11.7682C27.6558 11.4082 27.9918 11.1322 28.4158 10.9402C28.8398 10.7402 29.3278 10.6402 29.8798 10.6402C30.4398 10.6402 30.9318 10.7402 31.3558 10.9402C31.7878 11.1402 32.1238 11.4202 32.3638 11.7802C32.6118 12.1402 32.7438 12.5682 32.7598 13.0642H31.1158C31.1078 12.7682 30.9918 12.5082 30.7678 12.2842C30.5518 12.0522 30.2478 11.9362 29.8558 11.9362C29.5198 11.9282 29.2358 12.0122 29.0038 12.1882C28.7798 12.3562 28.6678 12.6042 28.6678 12.9322C28.6678 13.2122 28.7558 13.4362 28.9318 13.6042C29.1078 13.7642 29.3478 13.9002 29.6518 14.0122C29.9558 14.1242 30.3038 14.2442 30.6958 14.3722C31.1118 14.5162 31.4918 14.6842 31.8358 14.8762C32.1798 15.0682 32.4558 15.3242 32.6638 15.6442C32.8718 15.9562 32.9758 16.3602 32.9758 16.8562C32.9758 17.2962 32.8638 17.7042 32.6398 18.0802C32.4158 18.4562 32.0838 18.7602 31.6438 18.9922C31.2038 19.2162 30.6638 19.3282 30.0238 19.3282ZM34.316 19.1842V10.7842H39.8V12.0202H35.852V14.3242H39.44V15.5242H35.852V17.9482H39.8V19.1842H34.316ZM41.2535 19.1842V10.7842H44.3375C45.0095 10.7842 45.5615 10.9002 45.9935 11.1322C46.4335 11.3562 46.7615 11.6642 46.9775 12.0562C47.1935 12.4402 47.3015 12.8682 47.3015 13.3402C47.3015 13.8522 47.1655 14.3202 46.8935 14.7442C46.6295 15.1682 46.2135 15.4762 45.6455 15.6682L47.3855 19.1842H45.6215L44.0615 15.8722H42.7895V19.1842H41.2535ZM42.7895 14.7442H44.2415C44.7535 14.7442 45.1295 14.6202 45.3695 14.3722C45.6095 14.1242 45.7295 13.7962 45.7295 13.3882C45.7295 12.9882 45.6095 12.6682 45.3695 12.4282C45.1375 12.1882 44.7575 12.0682 44.2295 12.0682H42.7895V14.7442ZM48.7301 19.1842V10.7842H50.2661V19.1842H48.7301ZM51.8941 19.1842V10.7842H57.3781V12.0202H53.4301V14.3242H57.0181V15.5242H53.4301V17.9482H57.3781V19.1842H51.8941ZM61.6996 19.3282C61.0836 19.3282 60.5396 19.2242 60.0676 19.0162C59.5956 18.8002 59.2236 18.4962 58.9516 18.1042C58.6796 17.7042 58.5396 17.2202 58.5316 16.6522H60.1516C60.1676 17.0442 60.3076 17.3762 60.5716 17.6482C60.8436 17.9122 61.2156 18.0442 61.6876 18.0442C62.0956 18.0442 62.4196 17.9482 62.6596 17.7562C62.8996 17.5562 63.0196 17.2922 63.0196 16.9642C63.0196 16.6202 62.9116 16.3522 62.6956 16.1602C62.4876 15.9682 62.2076 15.8122 61.8556 15.6922C61.5036 15.5722 61.1276 15.4442 60.7276 15.3082C60.0796 15.0842 59.5836 14.7962 59.2396 14.4442C58.9036 14.0922 58.7356 13.6242 58.7356 13.0402C58.7276 12.5442 58.8436 12.1202 59.0836 11.7682C59.3316 11.4082 59.6676 11.1322 60.0916 10.9402C60.5156 10.7402 61.0036 10.6402 61.5556 10.6402C62.1156 10.6402 62.6076 10.7402 63.0316 10.9402C63.4636 11.1402 63.7996 11.4202 64.0396 11.7802C64.2876 12.1402 64.4196 12.5682 64.4356 13.0642H62.7916C62.7836 12.7682 62.6676 12.5082 62.4436 12.2842C62.2276 12.0522 61.9236 11.9362 61.5316 11.9362C61.1956 11.9282 60.9116 12.0122 60.6796 12.1882C60.4556 12.3562 60.3436 12.6042 60.3436 12.9322C60.3436 13.2122 60.4316 13.4362 60.6076 13.6042C60.7836 13.7642 61.0236 13.9002 61.3276 14.0122C61.6316 14.1242 61.9796 14.2442 62.3716 14.3722C62.7876 14.5162 63.1676 14.6842 63.5116 14.8762C63.8556 15.0682 64.1316 15.3242 64.3396 15.6442C64.5476 15.9562 64.6516 16.3602 64.6516 16.8562C64.6516 17.2962 64.5396 17.7042 64.3156 18.0802C64.0916 18.4562 63.7596 18.7602 63.3196 18.9922C62.8796 19.2162 62.3396 19.3282 61.6996 19.3282Z" fill="#111827"/>
</g>
<g filter="url(#filter1_b_1405_39)">
<ellipse cx="203" cy="15.1842" rx="15" ry="14.6053" fill="#F3F4F6" fill-opacity="0.5"/>
</g>
<path fill-rule="evenodd" clip-rule="evenodd" d="M196.172 10.4828C197.734 8.96185 200.266 8.96185 201.828 10.4828L203 11.6236L204.172 10.4828C205.734 8.96185 208.266 8.96185 209.828 10.4828C211.391 12.0038 211.391 14.4698 209.828 15.9908L203 22.6396L196.172 15.9908C194.609 14.4698 194.609 12.0038 196.172 10.4828Z" fill="#D1D5DB"/>
<defs>
<filter id="filter0_b_1405_39" x="-2" y="2.1842" width="78" height="26" filterUnits="userSpaceOnUse" color-interpolation-filters="sRGB">
<feFlood flood-opacity="0" result="BackgroundImageFix"/>
<feGaussianBlur in="BackgroundImageFix" stdDeviation="1"/>
<feComposite in2="SourceAlpha" operator="in" result="effect1_backgroundBlur_1405_39"/>
<feBlend mode="normal" in="SourceGraphic" in2="effect1_backgroundBlur_1405_39" result="shape"/>
</filter>
<filter id="filter1_b_1405_39" x="186" y="-1.42105" width="34" height="33.2105" filterUnits="userSpaceOnUse" color-interpolation-filters="sRGB">
<feFlood flood-opacity="0" result="BackgroundImageFix"/>
<feGaussianBlur in="BackgroundImageFix" stdDeviation="1"/>
<feComposite in2="SourceAlpha" operator="in" result="effect1_backgroundBlur_1405_39"/>
<feBlend mode="normal" in="SourceGraphic" in2="effect1_backgroundBlur_1405_39" result="shape"/>
</filter>
</defs>
</svg>
